Coordinates
datacolumns 6
datarows 108
range 0 1.07
inDegrees=yes
Units are S.I. units (second, meters, Newtons, ...)
If the header above contains a line with 'inDegrees', this indicates whether rotational values are in degrees (yes) or radians (no).
endheader
time	foot_tx	hip_flexion_r	knee_angle_r	ankle_angle_r	lumbar
0	0.24287065	55.55806573	-86.42989596	5.19103883	-36.66810657
0.01	0.24287352	55.665915	-86.42448188	5.18864387	-36.78094053
0.02	0.24287789	55.77640354	-86.41707279	5.1854061	-36.90542244
0.03	0.24286903	55.83310351	-86.40469129	5.1868525	-37.10019359
0.04	0.24287093	55.96256651	-86.39634353	5.18299863	-37.23317862
0.05	0.24287386	56.09580769	-86.3854525	5.1784935	-37.37738743
0.06	0.24286244	56.18204096	-86.37077038	5.17954955	-37.58457345
0.07	0.24286329	56.33464663	-86.3590529	5.17622807	-37.73712259
0.08	0.242859	56.49254908	-86.3463372	5.1743213	-37.89940323
0.09	0.24284776	56.65646811	-86.33225005	5.17382292	-38.07167307
0.1	0.24283207	56.79272717	-86.31546136	5.17752229	-38.28822971
0.11	0.24282401	56.98034436	-86.30012213	5.17821111	-38.46931761
0.12	0.24280534	57.17790839	-86.28349313	5.1797741	-38.66031966
0.13	0.24278783	57.38657368	-86.26552571	5.1810115	-38.86068593
0.14	0.24276889	57.60804369	-86.24626454	5.18162715	-39.07068713
0.15	0.24274936	57.84366905	-86.22570368	5.18124922	-39.29044787
0.16	0.24273013	58.09427929	-86.20383824	5.17978701	-39.52005639
0.17	0.24271182	58.35999451	-86.18062759	5.17745242	-39.75965258
0.18	0.24269347	58.68521322	-86.16094122	5.17258106	-39.96265018
0.19	0.24267625	58.97307168	-86.13524531	5.17040364	-40.23100292
0.2	0.24265755	59.27784577	-86.1095662	5.1687228	-40.50826902
0.21	0.24263143	59.65698469	-86.09074707	5.16569928	-40.73434992
0.22	0.24260748	59.98691921	-86.06663826	5.16769358	-41.0386483
0.23	0.24257462	60.39521962	-86.0504193	5.16915981	-41.28747122
0.24	0.24253718	60.75411121	-86.03159749	5.17843119	-41.61344177
0.25	0.24248843	61.21365013	-86.02454196	5.18801734	-41.85898294
0.26	0.24243941	61.65204485	-86.0171576	5.2040865	-42.15126579
0.27	0.24238778	62.11239829	-86.0138434	5.22495243	-42.44473736
0.28	0.24233603	62.59433158	-86.01388048	5.2505287	-42.73914098
0.29	0.24228445	63.09807265	-86.01680228	5.28127098	-43.03288785
0.3	0.24223707	63.62104712	-86.02164478	5.31737299	-43.32670886
0.31	0.24219489	64.16355608	-86.02865662	5.35942231	-43.61851411
0.32	0.24215771	64.73097138	-86.03813662	5.40722787	-43.90159869
0.33	0.2421252	65.32165915	-86.05288602	5.46231051	-44.1760742
0.34	0.24210101	65.9421026	-86.0718306	5.5228518	-44.43590582
0.35	0.24208974	66.60009715	-86.09534537	5.5873532	-44.67396631
0.36	0.24207973	67.29987341	-86.12703888	5.65764637	-44.88628309
0.37	0.2420822	68.05083446	-86.16585196	5.73131692	-45.06406613
0.38	0.24210453	68.85778978	-86.21212633	5.80844388	-45.20034773
0.39	0.24211433	69.69578499	-86.27293151	5.89949742	-45.31551767
0.4	0.2421423	70.56587667	-86.34067175	5.99930117	-45.40694357
0.41	0.24216697	71.46914603	-86.42156423	6.11364976	-45.46780348
0.42	0.24219021	72.39224384	-86.511614	6.24217954	-45.50997674
0.43	0.24221538	73.33081723	-86.60825536	6.38446249	-45.53586679
0.44	0.24223141	74.28504951	-86.71121198	6.54186446	-45.54104124
0.45	0.24223549	75.2583393	-86.81809335	6.71401269	-45.51859907
0.46	0.24223047	76.24144031	-86.9235249	6.90012012	-45.4754653
0.47	0.2422141	77.24166932	-87.02587483	7.09997327	-45.39877298
0.48	0.24218651	78.25198689	-87.11802377	7.31220974	-45.29265614
0.49	0.24215187	79.26876354	-87.19427017	7.53528207	-45.15663482
0.5	0.24211241	80.2877829	-87.2488171	7.76746362	-44.99084689
0.51	0.24207662	81.30260819	-87.27642116	8.00681266	-44.79796663
0.52	0.24204373	82.31576176	-87.27438536	8.25225404	-44.57085474
0.53	0.24202902	83.32261671	-87.23906935	8.5018031	-44.31168457
0.54	0.24203211	84.3317287	-87.1738233	8.75562871	-44.00655753
0.55	0.24205757	85.33912701	-87.08097958	9.01388382	-43.65637607
0.56	0.24210416	86.32984379	-86.96731302	9.27948366	-43.27364354
0.57	0.24217711	87.29038515	-86.83577285	9.5518278	-42.87061333
0.58	0.24227724	88.19871516	-86.69210988	9.83263577	-42.46780912
0.59	0.24240247	89.03234832	-86.54117483	10.12295645	-42.08591416
0.6	0.24255373	89.76680446	-86.38539848	10.42252957	-41.74712162
0.61	0.2427357	90.3800495	-86.22590333	10.72995543	-41.4708866
0.62	0.24294376	90.85478513	-86.06303584	11.04433243	-41.26971828
0.63	0.24317628	91.18066269	-85.89512157	11.36345712	-41.14965152
0.64	0.24343071	91.35822902	-85.71950696	11.68467751	-41.10583101
0.65	0.2437003	91.40221726	-85.53254961	12.00473624	-41.11856818
0.66	0.24397864	91.30651432	-85.32936812	12.32242754	-41.19530121
0.67	0.24425723	91.10937922	-85.104284	12.6326127	-41.29315534
0.68	0.24452636	90.81626645	-84.85153618	12.93329271	-41.40891876
0.69	0.2447783	90.44213185	-84.56491158	13.22162927	-41.52934915
0.7	0.24500546	90.00276867	-84.23821519	13.49460179	-41.64112929
0.71	0.24520442	89.51310438	-83.86588126	13.74931096	-41.73238019
0.72	0.24537153	88.98438377	-83.44366024	13.98375536	-41.79611592
0.73	0.2455115	88.43246545	-82.9688553	14.19531899	-41.819931
0.74	0.24562831	87.86544425	-82.43977905	14.38241038	-41.801441
0.75	0.24572359	87.28804031	-81.85692504	14.54449924	-41.74191705
0.76	0.24580492	86.70651995	-81.22213993	14.6808278	-41.64019018
0.77	0.24587968	86.12444652	-80.5384727	14.79121562	-41.49747488
0.78	0.2459517	85.5385151	-79.81065423	14.87703093	-41.32087043
0.79	0.24603178	84.95009413	-79.04094268	14.93731585	-41.11205571
0.8	0.24611796	84.34943237	-78.23476825	14.9750665	-40.88269785
0.81	0.24620963	83.72853888	-77.39600624	14.9922756	-40.64197092
0.82	0.24630392	83.08096958	-76.52776499	14.99085358	-40.39698294
0.83	0.24640234	82.40412687	-75.63370654	14.97248022	-40.14989834
0.84	0.24649722	81.6913845	-74.71611196	14.9398053	-39.90743244
0.85	0.24659274	80.94223003	-73.7777628	14.89422873	-39.66938293
0.86	0.24668629	80.15540089	-72.81833659	14.8361365	-39.43799479
0.87	0.24678225	79.32505699	-71.83854258	14.76673107	-39.21854357
0.88	0.24688677	78.45318582	-70.83714581	14.68490187	-39.01006513
0.89	0.24699786	77.53149416	-69.81624749	14.59304287	-38.82168573
0.9	0.247122	76.57085758	-68.77536798	14.48946676	-38.64286083
0.91	0.24725888	75.57007018	-67.71840401	14.37638323	-38.47533648
0.92	0.24740612	74.54315758	-66.64792669	14.25408542	-38.30478536
0.93	0.24756169	73.49404426	-65.56702434	14.12387019	-38.12816414
0.94	0.24772308	72.42933679	-64.47796902	13.98643697	-37.93964933
0.95	0.24788799	71.35072952	-63.38241088	13.8425539	-37.73897071
0.96	0.24805282	70.25887734	-62.2814338	13.69288858	-37.52679775
0.97	0.24821872	69.15223028	-61.17596153	13.53790999	-37.30609126
0.98	0.24838449	68.03185283	-60.06658213	13.37791967	-37.07668558
0.99	0.24855379	66.89889363	-58.95346476	13.21264746	-36.83805734
1	0.24871867	65.75391078	-57.83697434	13.04289326	-36.5907878
1.01	0.24889094	64.59686974	-56.71816013	12.86841142	-36.33480891
1.02	0.24905987	63.42502781	-55.59631342	12.6901319	-36.0739589
1.03	0.24923025	62.25005094	-54.46951544	12.50544468	-35.79566197
1.04	0.24939377	61.0622083	-53.33895819	12.31672834	-35.51054213
1.05	0.24954986	59.86516053	-52.20274765	12.12256991	-35.21468033
1.06	0.24969794	58.66076462	-51.05947303	11.9220519	-34.90609394
1.07	0.24983764	57.44781234	-49.90744333	11.71438951	-34.58628698
